<svg xmlns="http://www.w3.org/2000/svg" xmlns:xlink="http://www.w3.org/1999/xlink" width="4535" zoomAndPan="magnify" viewBox="0 0 3401.25 1785.749947" height="2381" preserveAspectRatio="xMidYMid meet" version="1.0"><defs><g/><clipPath id="3f0bb619c3"><path d="M 562.292969 72.585938 L 1162.886719 72.585938 L 1162.886719 673.179688 L 562.292969 673.179688 Z M 562.292969 72.585938 " clip-rule="nonzero"/></clipPath><clipPath id="7ce8437c71"><path d="M 994.359375 176 L 1468 176 L 1468 478.550781 L 994.359375 478.550781 Z M 994.359375 176 " clip-rule="nonzero"/></clipPath><clipPath id="918ec9f3b0"><path d="M 994.359375 4.910156 L 1468 4.910156 L 1468 328 L 994.359375 328 Z M 994.359375 4.910156 " clip-rule="nonzero"/></clipPath><clipPath id="ef88959285"><path d="M 543 867 L 1446 867 L 1446 1352.070312 L 543 1352.070312 Z M 543 867 " clip-rule="nonzero"/></clipPath><clipPath id="8be561681c"><rect x="0" width="903" y="0" height="486"/></clipPath><clipPath id="1af40e23f5"><rect x="0" width="1897" y="0" height="1353"/></clipPath></defs><g transform="matrix(1, 0, 0, 1, 715, 104)"><g clip-path="url(#1af40e23f5)"><g clip-path="url(#3f0bb619c3)"><path fill="#ffffff" d="M 1060.664062 653.011719 L 784.449219 653.011719 C 750.242188 653.011719 719.242188 631.511719 707.398438 599.574219 C 704.074219 590.425781 702.394531 580.929688 702.394531 571.351562 C 702.394531 526.316406 739.21875 489.6875 784.449219 489.6875 C 790 489.6875 794.453125 485.195312 794.453125 479.679688 C 794.453125 431.753906 830.339844 390.59375 878.34375 383.828125 C 882.136719 383.164062 886.554688 382.8125 891.832031 382.8125 C 918.53125 382.8125 943.234375 393.171875 961.257812 411.859375 L 964.578125 415.296875 C 964.695312 415.492188 964.851562 415.6875 965.007812 415.84375 C 966.027344 417.058594 967.082031 418.230469 967.980469 419.519531 C 970.992188 423.664062 976.621094 424.875 981.035156 422.335938 C 996.320312 413.617188 1014.34375 411.15625 1030.332031 415.257812 C 1060.390625 422.414062 1081.382812 448.917969 1081.382812 479.679688 C 1081.382812 480.894531 1081.460938 481.988281 1081.226562 483.042969 C 1080.328125 487.929688 1083.105469 492.699219 1087.796875 494.339844 C 1120.632812 505.714844 1142.71875 536.675781 1142.71875 571.351562 C 1142.71875 616.382812 1105.894531 653.011719 1060.664062 653.011719 Z M 582.308594 582.960938 L 582.308594 192.675781 L 652.359375 192.675781 C 668.933594 192.675781 682.378906 179.226562 682.378906 162.652344 L 682.378906 92.601562 L 952.578125 92.601562 C 958.089844 92.601562 962.585938 97.097656 962.585938 102.609375 L 962.585938 386.488281 C 942.492188 371.203125 917.984375 362.800781 891.832031 362.800781 C 885.339844 362.800781 879.710938 363.230469 875.140625 364.089844 C 820.917969 371.710938 779.289062 416.433594 774.832031 470.105469 C 723.035156 474.953125 682.378906 518.5 682.378906 571.351562 C 682.378906 578.621094 683.238281 585.851562 684.804688 592.96875 L 592.3125 592.96875 C 586.800781 592.96875 582.308594 588.472656 582.308594 582.960938 Z M 662.367188 106.75 L 662.367188 162.652344 C 662.367188 168.164062 657.871094 172.660156 652.359375 172.660156 L 596.457031 172.660156 Z M 1101.359375 478.15625 C 1100.695312 438.753906 1073.566406 405.015625 1035.140625 395.832031 C 1018.566406 391.570312 999.527344 392.859375 982.601562 399.503906 L 982.601562 102.609375 C 982.601562 86.03125 969.152344 72.585938 952.578125 72.585938 L 672.371094 72.585938 C 669.714844 72.585938 667.171875 73.640625 665.296875 75.515625 L 565.222656 175.589844 C 563.347656 177.46875 562.292969 180.007812 562.292969 182.667969 L 562.292969 582.960938 C 562.292969 599.535156 575.738281 612.984375 592.3125 612.984375 L 691.332031 612.984375 C 707.710938 649.140625 744.300781 673.027344 784.449219 673.027344 L 1060.664062 673.027344 C 1116.917969 673.027344 1162.734375 627.40625 1162.734375 571.351562 C 1162.734375 530.65625 1138.378906 494.105469 1101.359375 478.15625 " fill-opacity="1" fill-rule="nonzero"/></g><path fill="#ffffff" d="M 632.34375 262.726562 L 912.550781 262.726562 C 918.0625 262.726562 922.554688 258.230469 922.554688 252.71875 C 922.554688 247.207031 918.0625 242.710938 912.550781 242.710938 L 632.34375 242.710938 C 626.832031 242.710938 622.335938 247.207031 622.335938 252.71875 C 622.335938 258.230469 626.832031 262.726562 632.34375 262.726562 " fill-opacity="1" fill-rule="nonzero"/><path fill="#ffffff" d="M 632.34375 462.871094 L 732.417969 462.871094 C 737.929688 462.871094 742.425781 458.375 742.425781 452.863281 C 742.425781 447.351562 737.929688 442.859375 732.417969 442.859375 L 632.34375 442.859375 C 626.832031 442.859375 622.335938 447.351562 622.335938 452.863281 C 622.335938 458.375 626.832031 462.871094 632.34375 462.871094 " fill-opacity="1" fill-rule="nonzero"/><path fill="#ffffff" d="M 912.550781 292.746094 L 862.511719 292.746094 C 857 292.746094 852.503906 297.242188 852.503906 302.753906 C 852.503906 308.265625 857 312.761719 862.511719 312.761719 L 912.550781 312.761719 C 918.0625 312.761719 922.554688 308.265625 922.554688 302.753906 C 922.554688 297.242188 918.0625 292.746094 912.550781 292.746094 " fill-opacity="1" fill-rule="nonzero"/><path fill="#ffffff" d="M 632.34375 312.761719 L 812.476562 312.761719 C 817.988281 312.761719 822.484375 308.265625 822.484375 302.753906 C 822.484375 297.242188 817.988281 292.746094 812.476562 292.746094 L 632.34375 292.746094 C 626.832031 292.746094 622.335938 297.242188 622.335938 302.753906 C 622.335938 308.265625 626.832031 312.761719 632.34375 312.761719 " fill-opacity="1" fill-rule="nonzero"/><path fill="#ffffff" d="M 662.367188 492.894531 L 632.34375 492.894531 C 626.832031 492.894531 622.335938 497.390625 622.335938 502.902344 C 622.335938 508.414062 626.832031 512.910156 632.34375 512.910156 L 662.367188 512.910156 C 667.878906 512.910156 672.371094 508.414062 672.371094 502.902344 C 672.371094 497.390625 667.878906 492.894531 662.367188 492.894531 " fill-opacity="1" fill-rule="nonzero"/><path fill="#ffffff" d="M 632.34375 362.800781 L 682.378906 362.800781 C 687.890625 362.800781 692.386719 358.304688 692.386719 352.792969 C 692.386719 347.28125 687.890625 342.785156 682.378906 342.785156 L 632.34375 342.785156 C 626.832031 342.785156 622.335938 347.28125 622.335938 352.792969 C 622.335938 358.304688 626.832031 362.800781 632.34375 362.800781 " fill-opacity="1" fill-rule="nonzero"/><path fill="#ffffff" d="M 812.476562 342.785156 L 732.417969 342.785156 C 726.90625 342.785156 722.410156 347.28125 722.410156 352.792969 C 722.410156 358.304688 726.90625 362.800781 732.417969 362.800781 L 812.476562 362.800781 C 817.988281 362.800781 822.484375 358.304688 822.484375 352.792969 C 822.484375 347.28125 817.988281 342.785156 812.476562 342.785156 " fill-opacity="1" fill-rule="nonzero"/><path fill="#ffffff" d="M 632.34375 412.835938 L 662.367188 412.835938 C 667.878906 412.835938 672.371094 408.339844 672.371094 402.828125 C 672.371094 397.316406 667.878906 392.820312 662.367188 392.820312 L 632.34375 392.820312 C 626.832031 392.820312 622.335938 397.316406 622.335938 402.828125 C 622.335938 408.339844 626.832031 412.835938 632.34375 412.835938 " fill-opacity="1" fill-rule="nonzero"/><path fill="#ffffff" d="M 752.429688 392.820312 L 712.402344 392.820312 C 706.890625 392.820312 702.394531 397.316406 702.394531 402.828125 C 702.394531 408.339844 706.890625 412.835938 712.402344 412.835938 L 752.429688 412.835938 C 757.945312 412.835938 762.4375 408.339844 762.4375 402.828125 C 762.4375 397.316406 757.945312 392.820312 752.429688 392.820312 " fill-opacity="1" fill-rule="nonzero"/><path fill="#ffffff" d="M 945.503906 585.890625 L 932.5625 598.832031 L 932.5625 452.863281 C 932.5625 447.351562 928.070312 442.859375 922.554688 442.859375 C 917.042969 442.859375 912.550781 447.351562 912.550781 452.863281 L 912.550781 598.832031 L 899.609375 585.890625 C 895.699219 581.984375 889.367188 581.984375 885.460938 585.890625 C 881.550781 589.800781 881.550781 596.132812 885.460938 600.042969 L 915.480469 630.066406 C 917.4375 632.019531 919.976562 632.996094 922.554688 632.996094 C 925.136719 632.996094 927.675781 632.019531 929.632812 630.066406 L 959.652344 600.042969 C 963.5625 596.132812 963.5625 589.800781 959.652344 585.890625 C 955.746094 581.984375 949.414062 581.984375 945.503906 585.890625 " fill-opacity="1" fill-rule="nonzero"/><g clip-path="url(#7ce8437c71)"><path fill="#00afef" d="M 1103.492188 284.722656 L 994.359375 284.722656 L 994.359375 335.734375 C 994.359375 351.945312 1007.652344 365.238281 1023.867188 365.238281 L 1107.554688 365.238281 L 1107.554688 448.972656 C 1107.554688 465.183594 1120.847656 478.476562 1137.0625 478.476562 L 1325.183594 478.476562 C 1341.398438 478.476562 1354.691406 465.183594 1354.691406 448.972656 L 1354.691406 365.238281 L 1438.378906 365.238281 C 1454.59375 365.238281 1467.886719 351.988281 1467.886719 335.734375 L 1467.886719 284.722656 L 1296.695312 284.722656 L 1296.695312 188.546875 L 1210.804688 362.023438 C 1206.953125 366.59375 1201.238281 369.472656 1194.84375 369.472656 C 1183.371094 369.472656 1174.058594 360.203125 1173.976562 348.773438 L 1173.976562 176.90625 L 1103.535156 284.722656 Z M 1103.492188 284.722656 " fill-opacity="1" fill-rule="evenodd"/></g><g clip-path="url(#918ec9f3b0)"><path fill="#004aad" d="M 994.359375 259.199219 L 1089.691406 259.199219 L 1160.003906 151.546875 C 1172.917969 131.777344 1199.457031 141.304688 1199.457031 161.835938 L 1199.457031 327.4375 L 1322.222656 79.5 L 1287.890625 148.796875 C 1291.277344 143.886719 1296.949219 140.667969 1303.382812 140.667969 C 1313.796875 140.667969 1322.222656 149.09375 1322.222656 159.507812 L 1322.222656 259.113281 L 1467.925781 259.113281 L 1467.925781 147.527344 C 1467.925781 131.3125 1454.636719 118.019531 1438.421875 118.019531 L 1354.730469 118.019531 L 1354.730469 34.332031 C 1354.730469 18.117188 1341.441406 4.824219 1325.226562 4.824219 L 1137.105469 4.824219 C 1120.890625 4.824219 1107.597656 18.117188 1107.597656 34.332031 L 1107.597656 118.019531 L 1023.90625 118.019531 C 1007.695312 118.019531 994.402344 131.269531 994.402344 147.527344 L 994.402344 259.113281 Z M 994.359375 259.199219 " fill-opacity="1" fill-rule="evenodd"/></g><g fill="#ffffff" fill-opacity="1"><g transform="translate(400.82832, 962.025615)"><g><path d="M 211.75 -22.25 L 211.75 0 L 39.640625 0 L 39.640625 -243.390625 L 206.53125 -243.390625 L 206.53125 -221.140625 L 65.375 -221.140625 L 65.375 -134.5625 L 191.234375 -134.5625 L 191.234375 -112.65625 L 65.375 -112.65625 L 65.375 -22.25 Z M 211.75 -22.25 "/></g></g></g><g fill="#ffffff" fill-opacity="1"><g transform="translate(633.440199, 962.025615)"><g><path d="M 243.046875 -243.390625 L 243.046875 0 L 221.828125 0 L 65.375 -197.5 L 65.375 0 L 39.640625 0 L 39.640625 -243.390625 L 60.84375 -243.390625 L 217.65625 -45.890625 L 217.65625 -243.390625 Z M 243.046875 -243.390625 "/></g></g></g><g fill="#ffffff" fill-opacity="1"><g transform="translate(916.120977, 962.025615)"><g><path d="M 65.375 -221.140625 L 65.375 -125.515625 L 191.234375 -125.515625 L 191.234375 -103.265625 L 65.375 -103.265625 L 65.375 0 L 39.640625 0 L 39.640625 -243.390625 L 206.53125 -243.390625 L 206.53125 -221.140625 Z M 65.375 -221.140625 "/></g></g></g><g fill="#ffffff" fill-opacity="1"><g transform="translate(1124.74141, 962.025615)"><g><path d="M 192.28125 -65.015625 L 56.671875 -65.015625 L 27.46875 0 L 0.703125 0 L 111.953125 -243.390625 L 137.34375 -243.390625 L 248.609375 0 L 221.484375 0 Z M 182.890625 -85.875 L 124.484375 -216.625 L 66.0625 -85.875 Z M 182.890625 -85.875 "/></g></g></g><g fill="#ffffff" fill-opacity="1"><g transform="translate(1374.042933, 962.025615)"><g><path d="M 106.75 2.09375 C 88.664062 2.09375 71.335938 -0.800781 54.765625 -6.59375 C 38.191406 -12.394531 25.382812 -20.050781 16.34375 -29.5625 L 26.421875 -49.375 C 35.234375 -40.5625 46.941406 -33.429688 61.546875 -27.984375 C 76.148438 -22.535156 91.21875 -19.8125 106.75 -19.8125 C 128.53125 -19.8125 144.867188 -23.8125 155.765625 -31.8125 C 166.660156 -39.8125 172.109375 -50.1875 172.109375 -62.9375 C 172.109375 -72.664062 169.148438 -80.425781 163.234375 -86.21875 C 157.328125 -92.019531 150.085938 -96.484375 141.515625 -99.609375 C 132.941406 -102.742188 121.003906 -106.164062 105.703125 -109.875 C 87.390625 -114.507812 72.785156 -118.96875 61.890625 -123.25 C 50.992188 -127.539062 41.660156 -134.09375 33.890625 -142.90625 C 26.128906 -151.71875 22.25 -163.65625 22.25 -178.71875 C 22.25 -191 25.492188 -202.179688 31.984375 -212.265625 C 38.472656 -222.347656 48.441406 -230.40625 61.890625 -236.4375 C 75.335938 -242.46875 92.023438 -245.484375 111.953125 -245.484375 C 125.867188 -245.484375 139.488281 -243.566406 152.8125 -239.734375 C 166.144531 -235.910156 177.675781 -230.640625 187.40625 -223.921875 L 178.71875 -203.40625 C 168.519531 -210.125 157.625 -215.164062 146.03125 -218.53125 C 134.445312 -221.894531 123.085938 -223.578125 111.953125 -223.578125 C 90.628906 -223.578125 74.578125 -219.460938 63.796875 -211.234375 C 53.023438 -203.003906 47.640625 -192.398438 47.640625 -179.421875 C 47.640625 -169.679688 50.59375 -161.851562 56.5 -155.9375 C 62.414062 -150.03125 69.832031 -145.507812 78.75 -142.375 C 87.675781 -139.25 99.671875 -135.832031 114.734375 -132.125 C 132.585938 -127.71875 147.019531 -123.367188 158.03125 -119.078125 C 169.039062 -114.796875 178.367188 -108.304688 186.015625 -99.609375 C 193.671875 -90.921875 197.5 -79.160156 197.5 -64.328125 C 197.5 -52.035156 194.191406 -40.847656 187.578125 -30.765625 C 180.972656 -20.679688 170.832031 -12.679688 157.15625 -6.765625 C 143.476562 -0.859375 126.675781 2.09375 106.75 2.09375 Z M 106.75 2.09375 "/></g></g></g><g clip-path="url(#ef88959285)"><g transform="matrix(1, 0, 0, 1, 543, 867)"><g clip-path="url(#8be561681c)"><g fill="#00bfff" fill-opacity="1"><g transform="translate(0.727233, 384.284493)"><g><path d="M 220.921875 -143.4375 L 279.734375 -143.4375 L 279.734375 -30.59375 C 264.628906 -19.207031 247.144531 -10.46875 227.28125 -4.375 C 207.414062 1.71875 187.414062 4.765625 167.28125 4.765625 C 138.40625 4.765625 112.441406 -1.390625 89.390625 -13.703125 C 66.347656 -26.023438 48.269531 -43.113281 35.15625 -64.96875 C 22.050781 -86.820312 15.5 -111.519531 15.5 -139.0625 C 15.5 -166.613281 22.050781 -191.316406 35.15625 -213.171875 C 48.269531 -235.023438 66.484375 -252.109375 89.796875 -264.421875 C 113.109375 -276.742188 139.332031 -282.90625 168.46875 -282.90625 C 192.84375 -282.90625 214.960938 -278.796875 234.828125 -270.578125 C 254.691406 -262.367188 271.378906 -250.453125 284.890625 -234.828125 L 243.578125 -196.6875 C 223.703125 -217.613281 199.726562 -228.078125 171.65625 -228.078125 C 153.90625 -228.078125 138.140625 -224.367188 124.359375 -216.953125 C 110.585938 -209.535156 99.859375 -199.070312 92.171875 -185.5625 C 84.492188 -172.050781 80.65625 -156.550781 80.65625 -139.0625 C 80.65625 -121.851562 84.492188 -106.492188 92.171875 -92.984375 C 99.859375 -79.472656 110.523438 -68.941406 124.171875 -61.390625 C 137.816406 -53.835938 153.378906 -50.0625 170.859375 -50.0625 C 189.398438 -50.0625 206.085938 -54.035156 220.921875 -61.984375 Z M 220.921875 -143.4375 "/></g></g></g><g fill="#00bfff" fill-opacity="1"><g transform="translate(307.071489, 384.284493)"><g><path d="M 248.34375 -51.65625 L 248.34375 0 L 32.984375 0 L 32.984375 -278.140625 L 243.171875 -278.140625 L 243.171875 -226.484375 L 96.953125 -226.484375 L 96.953125 -166.09375 L 226.09375 -166.09375 L 226.09375 -116.03125 L 96.953125 -116.03125 L 96.953125 -51.65625 Z M 248.34375 -51.65625 "/></g></g></g><g fill="#00bfff" fill-opacity="1"><g transform="translate(573.68242, 384.284493)"><g><path d="M 32.984375 -278.140625 L 159.328125 -278.140625 C 189.523438 -278.140625 216.210938 -272.378906 239.390625 -260.859375 C 262.578125 -249.335938 280.59375 -233.113281 293.4375 -212.1875 C 306.28125 -191.257812 312.703125 -166.882812 312.703125 -139.0625 C 312.703125 -111.25 306.28125 -86.878906 293.4375 -65.953125 C 280.59375 -45.023438 262.578125 -28.800781 239.390625 -17.28125 C 216.210938 -5.757812 189.523438 0 159.328125 0 L 32.984375 0 Z M 156.15625 -52.84375 C 183.96875 -52.84375 206.148438 -60.585938 222.703125 -76.078125 C 239.265625 -91.578125 247.546875 -112.570312 247.546875 -139.0625 C 247.546875 -165.550781 239.265625 -186.546875 222.703125 -202.046875 C 206.148438 -217.546875 183.96875 -225.296875 156.15625 -225.296875 L 97.34375 -225.296875 L 97.34375 -52.84375 Z M 156.15625 -52.84375 "/></g></g></g></g></g></g><g fill="#ffffff" fill-opacity="1"><g transform="translate(2.047762, 1333.228635)"><g><path d="M 34.234375 -9.4375 L 13.78125 -9.4375 L 9.875 0 L -0.5625 0 L 19.0625 -44.0625 L 29.140625 -44.0625 L 48.84375 0 L 38.140625 0 Z M 31.03125 -17.1875 L 24.046875 -34.046875 L 17.0625 -17.1875 Z M 31.03125 -17.1875 "/></g></g></g><g fill="#ffffff" fill-opacity="1"><g transform="translate(49.937991, 1333.228635)"><g><path d="M 39.46875 -33.859375 L 39.46875 -5.671875 C 39.46875 0.546875 37.847656 5.164062 34.609375 8.1875 C 31.378906 11.207031 26.660156 12.71875 20.453125 12.71875 C 17.179688 12.71875 14.078125 12.316406 11.140625 11.515625 C 8.203125 10.722656 5.769531 9.570312 3.84375 8.0625 L 7.734375 1 C 9.160156 2.175781 10.960938 3.109375 13.140625 3.796875 C 15.328125 4.492188 17.515625 4.84375 19.703125 4.84375 C 23.097656 4.84375 25.601562 4.078125 27.21875 2.546875 C 28.832031 1.015625 29.640625 -1.300781 29.640625 -4.40625 L 29.640625 -5.859375 C 27.078125 -3.046875 23.507812 -1.640625 18.9375 -1.640625 C 15.832031 -1.640625 12.988281 -2.320312 10.40625 -3.6875 C 7.832031 -5.050781 5.789062 -6.96875 4.28125 -9.4375 C 2.769531 -11.914062 2.015625 -14.769531 2.015625 -18 C 2.015625 -21.226562 2.769531 -24.078125 4.28125 -26.546875 C 5.789062 -29.023438 7.832031 -30.945312 10.40625 -32.3125 C 12.988281 -33.675781 15.832031 -34.359375 18.9375 -34.359375 C 23.851562 -34.359375 27.585938 -32.742188 30.140625 -29.515625 L 30.140625 -33.859375 Z M 20.890625 -9.6875 C 23.492188 -9.6875 25.625 -10.453125 27.28125 -11.984375 C 28.9375 -13.515625 29.765625 -15.519531 29.765625 -18 C 29.765625 -20.476562 28.9375 -22.484375 27.28125 -24.015625 C 25.625 -25.546875 23.492188 -26.3125 20.890625 -26.3125 C 18.296875 -26.3125 16.15625 -25.546875 14.46875 -24.015625 C 12.789062 -22.484375 11.953125 -20.476562 11.953125 -18 C 11.953125 -15.519531 12.789062 -13.515625 14.46875 -11.984375 C 16.15625 -10.453125 18.296875 -9.6875 20.890625 -9.6875 Z M 20.890625 -9.6875 "/></g></g></g><g fill="#ffffff" fill-opacity="1"><g transform="translate(93.989457, 1333.228635)"><g><path d="M 4.53125 -33.859375 L 14.34375 -33.859375 L 14.34375 0 L 4.53125 0 Z M 9.453125 -38.578125 C 7.640625 -38.578125 6.164062 -39.101562 5.03125 -40.15625 C 3.90625 -41.207031 3.34375 -42.507812 3.34375 -44.0625 C 3.34375 -45.613281 3.90625 -46.910156 5.03125 -47.953125 C 6.164062 -49.003906 7.640625 -49.53125 9.453125 -49.53125 C 11.253906 -49.53125 12.71875 -49.023438 13.84375 -48.015625 C 14.976562 -47.015625 15.546875 -45.757812 15.546875 -44.25 C 15.546875 -42.613281 14.976562 -41.257812 13.84375 -40.1875 C 12.71875 -39.113281 11.253906 -38.578125 9.453125 -38.578125 Z M 9.453125 -38.578125 "/></g></g></g><g fill="#ffffff" fill-opacity="1"><g transform="translate(112.931584, 1333.228635)"><g><path d="M 4.53125 -46.703125 L 14.34375 -46.703125 L 14.34375 0 L 4.53125 0 Z M 4.53125 -46.703125 "/></g></g></g><g fill="#ffffff" fill-opacity="1"><g transform="translate(131.873712, 1333.228635)"><g><path d="M 4.53125 -33.859375 L 14.34375 -33.859375 L 14.34375 0 L 4.53125 0 Z M 9.453125 -38.578125 C 7.640625 -38.578125 6.164062 -39.101562 5.03125 -40.15625 C 3.90625 -41.207031 3.34375 -42.507812 3.34375 -44.0625 C 3.34375 -45.613281 3.90625 -46.910156 5.03125 -47.953125 C 6.164062 -49.003906 7.640625 -49.53125 9.453125 -49.53125 C 11.253906 -49.53125 12.71875 -49.023438 13.84375 -48.015625 C 14.976562 -47.015625 15.546875 -45.757812 15.546875 -44.25 C 15.546875 -42.613281 14.976562 -41.257812 13.84375 -40.1875 C 12.71875 -39.113281 11.253906 -38.578125 9.453125 -38.578125 Z M 9.453125 -38.578125 "/></g></g></g><g fill="#ffffff" fill-opacity="1"><g transform="translate(150.81584, 1333.228635)"><g><path d="M 39.015625 -46.703125 L 39.015625 0 L 29.640625 0 L 29.640625 -3.90625 C 27.210938 -0.96875 23.6875 0.5 19.0625 0.5 C 15.875 0.5 12.988281 -0.210938 10.40625 -1.640625 C 7.832031 -3.066406 5.8125 -5.097656 4.34375 -7.734375 C 2.875 -10.378906 2.140625 -13.445312 2.140625 -16.9375 C 2.140625 -20.414062 2.875 -23.472656 4.34375 -26.109375 C 5.8125 -28.753906 7.832031 -30.789062 10.40625 -32.21875 C 12.988281 -33.644531 15.875 -34.359375 19.0625 -34.359375 C 23.382812 -34.359375 26.765625 -32.992188 29.203125 -30.265625 L 29.203125 -46.703125 Z M 20.765625 -7.546875 C 23.242188 -7.546875 25.300781 -8.394531 26.9375 -10.09375 C 28.570312 -11.800781 29.390625 -14.082031 29.390625 -16.9375 C 29.390625 -19.78125 28.570312 -22.050781 26.9375 -23.75 C 25.300781 -25.457031 23.242188 -26.3125 20.765625 -26.3125 C 18.253906 -26.3125 16.175781 -25.457031 14.53125 -23.75 C 12.894531 -22.050781 12.078125 -19.78125 12.078125 -16.9375 C 12.078125 -14.082031 12.894531 -11.800781 14.53125 -10.09375 C 16.175781 -8.394531 18.253906 -7.546875 20.765625 -7.546875 Z M 20.765625 -7.546875 "/></g></g></g><g fill="#ffffff" fill-opacity="1"><g transform="translate(194.363864, 1333.228635)"><g><path d="M 18.1875 -34.359375 C 23.4375 -34.359375 27.460938 -33.109375 30.265625 -30.609375 C 33.078125 -28.117188 34.484375 -24.359375 34.484375 -19.328125 L 34.484375 0 L 25.296875 0 L 25.296875 -4.21875 C 23.453125 -1.070312 20.015625 0.5 14.984375 0.5 C 12.378906 0.5 10.117188 0.0625 8.203125 -0.8125 C 6.296875 -1.695312 4.835938 -2.914062 3.828125 -4.46875 C 2.828125 -6.019531 2.328125 -7.78125 2.328125 -9.75 C 2.328125 -12.894531 3.507812 -15.367188 5.875 -17.171875 C 8.25 -18.984375 11.914062 -19.890625 16.875 -19.890625 L 24.671875 -19.890625 C 24.671875 -22.023438 24.019531 -23.671875 22.71875 -24.828125 C 21.414062 -25.984375 19.46875 -26.5625 16.875 -26.5625 C 15.0625 -26.5625 13.285156 -26.273438 11.546875 -25.703125 C 9.804688 -25.140625 8.328125 -24.375 7.109375 -23.40625 L 3.59375 -30.265625 C 5.4375 -31.566406 7.644531 -32.570312 10.21875 -33.28125 C 12.800781 -34 15.457031 -34.359375 18.1875 -34.359375 Z M 17.4375 -6.109375 C 19.113281 -6.109375 20.601562 -6.492188 21.90625 -7.265625 C 23.207031 -8.046875 24.128906 -9.191406 24.671875 -10.703125 L 24.671875 -14.15625 L 17.9375 -14.15625 C 13.90625 -14.15625 11.890625 -12.835938 11.890625 -10.203125 C 11.890625 -8.941406 12.382812 -7.941406 13.375 -7.203125 C 14.363281 -6.472656 15.71875 -6.109375 17.4375 -6.109375 Z M 17.4375 -6.109375 "/></g></g></g><g fill="#ffffff" fill-opacity="1"><g transform="translate(233.569684, 1333.228635)"><g><path d="M 39.015625 -46.703125 L 39.015625 0 L 29.640625 0 L 29.640625 -3.90625 C 27.210938 -0.96875 23.6875 0.5 19.0625 0.5 C 15.875 0.5 12.988281 -0.210938 10.40625 -1.640625 C 7.832031 -3.066406 5.8125 -5.097656 4.34375 -7.734375 C 2.875 -10.378906 2.140625 -13.445312 2.140625 -16.9375 C 2.140625 -20.414062 2.875 -23.472656 4.34375 -26.109375 C 5.8125 -28.753906 7.832031 -30.789062 10.40625 -32.21875 C 12.988281 -33.644531 15.875 -34.359375 19.0625 -34.359375 C 23.382812 -34.359375 26.765625 -32.992188 29.203125 -30.265625 L 29.203125 -46.703125 Z M 20.765625 -7.546875 C 23.242188 -7.546875 25.300781 -8.394531 26.9375 -10.09375 C 28.570312 -11.800781 29.390625 -14.082031 29.390625 -16.9375 C 29.390625 -19.78125 28.570312 -22.050781 26.9375 -23.75 C 25.300781 -25.457031 23.242188 -26.3125 20.765625 -26.3125 C 18.253906 -26.3125 16.175781 -25.457031 14.53125 -23.75 C 12.894531 -22.050781 12.078125 -19.78125 12.078125 -16.9375 C 12.078125 -14.082031 12.894531 -11.800781 14.53125 -10.09375 C 16.175781 -8.394531 18.253906 -7.546875 20.765625 -7.546875 Z M 20.765625 -7.546875 "/></g></g></g><g fill="#ffffff" fill-opacity="1"><g transform="translate(277.117695, 1333.228635)"><g><path d="M 37.703125 -16.796875 C 37.703125 -16.671875 37.640625 -15.789062 37.515625 -14.15625 L 11.890625 -14.15625 C 12.359375 -12.0625 13.453125 -10.40625 15.171875 -9.1875 C 16.890625 -7.96875 19.03125 -7.359375 21.59375 -7.359375 C 23.351562 -7.359375 24.914062 -7.617188 26.28125 -8.140625 C 27.644531 -8.671875 28.910156 -9.503906 30.078125 -10.640625 L 35.3125 -4.96875 C 32.125 -1.320312 27.460938 0.5 21.328125 0.5 C 17.515625 0.5 14.140625 -0.242188 11.203125 -1.734375 C 8.265625 -3.222656 6 -5.285156 4.40625 -7.921875 C 2.8125 -10.566406 2.015625 -13.570312 2.015625 -16.9375 C 2.015625 -20.25 2.800781 -23.234375 4.375 -25.890625 C 5.945312 -28.554688 8.109375 -30.632812 10.859375 -32.125 C 13.609375 -33.613281 16.679688 -34.359375 20.078125 -34.359375 C 23.390625 -34.359375 26.390625 -33.644531 29.078125 -32.21875 C 31.765625 -30.789062 33.875 -28.742188 35.40625 -26.078125 C 36.9375 -23.421875 37.703125 -20.328125 37.703125 -16.796875 Z M 20.140625 -26.9375 C 17.910156 -26.9375 16.039062 -26.304688 14.53125 -25.046875 C 13.019531 -23.785156 12.097656 -22.066406 11.765625 -19.890625 L 28.453125 -19.890625 C 28.109375 -22.023438 27.179688 -23.734375 25.671875 -25.015625 C 24.160156 -26.296875 22.316406 -26.9375 20.140625 -26.9375 Z M 20.140625 -26.9375 "/></g></g></g><g fill="#ffffff" fill-opacity="1"><g transform="translate(316.826945, 1333.228635)"><g/></g></g><g fill="#ffffff" fill-opacity="1"><g transform="translate(334.636322, 1333.228635)"><g><path d="M 24.546875 -34.359375 C 27.691406 -34.359375 30.550781 -33.632812 33.125 -32.1875 C 35.707031 -30.738281 37.734375 -28.703125 39.203125 -26.078125 C 40.671875 -23.460938 41.40625 -20.414062 41.40625 -16.9375 C 41.40625 -13.445312 40.671875 -10.390625 39.203125 -7.765625 C 37.734375 -5.148438 35.707031 -3.117188 33.125 -1.671875 C 30.550781 -0.222656 27.691406 0.5 24.546875 0.5 C 20.222656 0.5 16.820312 -0.863281 14.34375 -3.59375 L 14.34375 12.203125 L 4.53125 12.203125 L 4.53125 -33.859375 L 13.90625 -33.859375 L 13.90625 -29.953125 C 16.34375 -32.890625 19.890625 -34.359375 24.546875 -34.359375 Z M 22.84375 -7.546875 C 25.363281 -7.546875 27.429688 -8.394531 29.046875 -10.09375 C 30.660156 -11.800781 31.46875 -14.082031 31.46875 -16.9375 C 31.46875 -19.78125 30.660156 -22.050781 29.046875 -23.75 C 27.429688 -25.457031 25.363281 -26.3125 22.84375 -26.3125 C 20.320312 -26.3125 18.253906 -25.457031 16.640625 -23.75 C 15.023438 -22.050781 14.21875 -19.78125 14.21875 -16.9375 C 14.21875 -14.082031 15.023438 -11.800781 16.640625 -10.09375 C 18.253906 -8.394531 20.320312 -7.546875 22.84375 -7.546875 Z M 22.84375 -7.546875 "/></g></g></g><g fill="#ffffff" fill-opacity="1"><g transform="translate(377.492091, 1333.228635)"><g><path d="M 18.1875 -34.359375 C 23.4375 -34.359375 27.460938 -33.109375 30.265625 -30.609375 C 33.078125 -28.117188 34.484375 -24.359375 34.484375 -19.328125 L 34.484375 0 L 25.296875 0 L 25.296875 -4.21875 C 23.453125 -1.070312 20.015625 0.5 14.984375 0.5 C 12.378906 0.5 10.117188 0.0625 8.203125 -0.8125 C 6.296875 -1.695312 4.835938 -2.914062 3.828125 -4.46875 C 2.828125 -6.019531 2.328125 -7.78125 2.328125 -9.75 C 2.328125 -12.894531 3.507812 -15.367188 5.875 -17.171875 C 8.25 -18.984375 11.914062 -19.890625 16.875 -19.890625 L 24.671875 -19.890625 C 24.671875 -22.023438 24.019531 -23.671875 22.71875 -24.828125 C 21.414062 -25.984375 19.46875 -26.5625 16.875 -26.5625 C 15.0625 -26.5625 13.285156 -26.273438 11.546875 -25.703125 C 9.804688 -25.140625 8.328125 -24.375 7.109375 -23.40625 L 3.59375 -30.265625 C 5.4375 -31.566406 7.644531 -32.570312 10.21875 -33.28125 C 12.800781 -34 15.457031 -34.359375 18.1875 -34.359375 Z M 17.4375 -6.109375 C 19.113281 -6.109375 20.601562 -6.492188 21.90625 -7.265625 C 23.207031 -8.046875 24.128906 -9.191406 24.671875 -10.703125 L 24.671875 -14.15625 L 17.9375 -14.15625 C 13.90625 -14.15625 11.890625 -12.835938 11.890625 -10.203125 C 11.890625 -8.941406 12.382812 -7.941406 13.375 -7.203125 C 14.363281 -6.472656 15.71875 -6.109375 17.4375 -6.109375 Z M 17.4375 -6.109375 "/></g></g></g><g fill="#ffffff" fill-opacity="1"><g transform="translate(416.320323, 1333.228635)"><g><path d="M 13.90625 -29.390625 C 15.082031 -31.023438 16.664062 -32.257812 18.65625 -33.09375 C 20.65625 -33.9375 22.953125 -34.359375 25.546875 -34.359375 L 25.546875 -25.296875 C 24.460938 -25.378906 23.726562 -25.421875 23.34375 -25.421875 C 20.539062 -25.421875 18.335938 -24.632812 16.734375 -23.0625 C 15.140625 -21.488281 14.34375 -19.128906 14.34375 -15.984375 L 14.34375 0 L 4.53125 0 L 4.53125 -33.859375 L 13.90625 -33.859375 Z M 13.90625 -29.390625 "/></g></g></g><g fill="#ffffff" fill-opacity="1"><g transform="translate(443.002933, 1333.228635)"><g><path d="M 18.1875 -34.359375 C 23.4375 -34.359375 27.460938 -33.109375 30.265625 -30.609375 C 33.078125 -28.117188 34.484375 -24.359375 34.484375 -19.328125 L 34.484375 0 L 25.296875 0 L 25.296875 -4.21875 C 23.453125 -1.070312 20.015625 0.5 14.984375 0.5 C 12.378906 0.5 10.117188 0.0625 8.203125 -0.8125 C 6.296875 -1.695312 4.835938 -2.914062 3.828125 -4.46875 C 2.828125 -6.019531 2.328125 -7.78125 2.328125 -9.75 C 2.328125 -12.894531 3.507812 -15.367188 5.875 -17.171875 C 8.25 -18.984375 11.914062 -19.890625 16.875 -19.890625 L 24.671875 -19.890625 C 24.671875 -22.023438 24.019531 -23.671875 22.71875 -24.828125 C 21.414062 -25.984375 19.46875 -26.5625 16.875 -26.5625 C 15.0625 -26.5625 13.285156 -26.273438 11.546875 -25.703125 C 9.804688 -25.140625 8.328125 -24.375 7.109375 -23.40625 L 3.59375 -30.265625 C 5.4375 -31.566406 7.644531 -32.570312 10.21875 -33.28125 C 12.800781 -34 15.457031 -34.359375 18.1875 -34.359375 Z M 17.4375 -6.109375 C 19.113281 -6.109375 20.601562 -6.492188 21.90625 -7.265625 C 23.207031 -8.046875 24.128906 -9.191406 24.671875 -10.703125 L 24.671875 -14.15625 L 17.9375 -14.15625 C 13.90625 -14.15625 11.890625 -12.835938 11.890625 -10.203125 C 11.890625 -8.941406 12.382812 -7.941406 13.375 -7.203125 C 14.363281 -6.472656 15.71875 -6.109375 17.4375 -6.109375 Z M 17.4375 -6.109375 "/></g></g></g><g fill="#ffffff" fill-opacity="1"><g transform="translate(481.831141, 1333.228635)"><g/></g></g><g fill="#ffffff" fill-opacity="1"><g transform="translate(499.640492, 1333.228635)"><g><path d="M 38.890625 -33.859375 L 38.890625 12.203125 L 29.078125 12.203125 L 29.078125 -3.59375 C 26.640625 -0.863281 23.257812 0.5 18.9375 0.5 C 15.75 0.5 12.863281 -0.210938 10.28125 -1.640625 C 7.707031 -3.066406 5.6875 -5.097656 4.21875 -7.734375 C 2.75 -10.378906 2.015625 -13.445312 2.015625 -16.9375 C 2.015625 -20.414062 2.75 -23.472656 4.21875 -26.109375 C 5.6875 -28.753906 7.707031 -30.789062 10.28125 -32.21875 C 12.863281 -33.644531 15.75 -34.359375 18.9375 -34.359375 C 23.5625 -34.359375 27.085938 -32.890625 29.515625 -29.953125 L 29.515625 -33.859375 Z M 20.640625 -7.546875 C 23.117188 -7.546875 25.175781 -8.394531 26.8125 -10.09375 C 28.445312 -11.800781 29.265625 -14.082031 29.265625 -16.9375 C 29.265625 -19.78125 28.445312 -22.050781 26.8125 -23.75 C 25.175781 -25.457031 23.117188 -26.3125 20.640625 -26.3125 C 18.128906 -26.3125 16.050781 -25.457031 14.40625 -23.75 C 12.769531 -22.050781 11.953125 -19.78125 11.953125 -16.9375 C 11.953125 -14.082031 12.769531 -11.800781 14.40625 -10.09375 C 16.050781 -8.394531 18.128906 -7.546875 20.640625 -7.546875 Z M 20.640625 -7.546875 "/></g></g></g><g fill="#ffffff" fill-opacity="1"><g transform="translate(543.062637, 1333.228635)"><g><path d="M 38.640625 -33.859375 L 38.640625 0 L 29.328125 0 L 29.328125 -4.03125 C 28.023438 -2.5625 26.472656 -1.4375 24.671875 -0.65625 C 22.867188 0.113281 20.914062 0.5 18.8125 0.5 C 14.363281 0.5 10.835938 -0.773438 8.234375 -3.328125 C 5.640625 -5.890625 4.34375 -9.691406 4.34375 -14.734375 L 4.34375 -33.859375 L 14.15625 -33.859375 L 14.15625 -16.171875 C 14.15625 -10.722656 16.441406 -8 21.015625 -8 C 23.367188 -8 25.257812 -8.765625 26.6875 -10.296875 C 28.113281 -11.828125 28.828125 -14.101562 28.828125 -17.125 L 28.828125 -33.859375 Z M 38.640625 -33.859375 "/></g></g></g><g fill="#ffffff" fill-opacity="1"><g transform="translate(586.296032, 1333.228635)"><g><path d="M 37.703125 -16.796875 C 37.703125 -16.671875 37.640625 -15.789062 37.515625 -14.15625 L 11.890625 -14.15625 C 12.359375 -12.0625 13.453125 -10.40625 15.171875 -9.1875 C 16.890625 -7.96875 19.03125 -7.359375 21.59375 -7.359375 C 23.351562 -7.359375 24.914062 -7.617188 26.28125 -8.140625 C 27.644531 -8.671875 28.910156 -9.503906 30.078125 -10.640625 L 35.3125 -4.96875 C 32.125 -1.320312 27.460938 0.5 21.328125 0.5 C 17.515625 0.5 14.140625 -0.242188 11.203125 -1.734375 C 8.265625 -3.222656 6 -5.285156 4.40625 -7.921875 C 2.8125 -10.566406 2.015625 -13.570312 2.015625 -16.9375 C 2.015625 -20.25 2.800781 -23.234375 4.375 -25.890625 C 5.945312 -28.554688 8.109375 -30.632812 10.859375 -32.125 C 13.609375 -33.613281 16.679688 -34.359375 20.078125 -34.359375 C 23.390625 -34.359375 26.390625 -33.644531 29.078125 -32.21875 C 31.765625 -30.789062 33.875 -28.742188 35.40625 -26.078125 C 36.9375 -23.421875 37.703125 -20.328125 37.703125 -16.796875 Z M 20.140625 -26.9375 C 17.910156 -26.9375 16.039062 -26.304688 14.53125 -25.046875 C 13.019531 -23.785156 12.097656 -22.066406 11.765625 -19.890625 L 28.453125 -19.890625 C 28.109375 -22.023438 27.179688 -23.734375 25.671875 -25.015625 C 24.160156 -26.296875 22.316406 -26.9375 20.140625 -26.9375 Z M 20.140625 -26.9375 "/></g></g></g><g fill="#ffffff" fill-opacity="1"><g transform="translate(626.005256, 1333.228635)"><g><path d="M 47.890625 -34.359375 C 52.128906 -34.359375 55.492188 -33.109375 57.984375 -30.609375 C 60.484375 -28.117188 61.734375 -24.378906 61.734375 -19.390625 L 61.734375 0 L 51.921875 0 L 51.921875 -17.875 C 51.921875 -20.5625 51.363281 -22.566406 50.25 -23.890625 C 49.144531 -25.210938 47.5625 -25.875 45.5 -25.875 C 43.195312 -25.875 41.375 -25.128906 40.03125 -23.640625 C 38.6875 -22.148438 38.015625 -19.9375 38.015625 -17 L 38.015625 0 L 28.203125 0 L 28.203125 -17.875 C 28.203125 -23.207031 26.0625 -25.875 21.78125 -25.875 C 19.507812 -25.875 17.703125 -25.128906 16.359375 -23.640625 C 15.015625 -22.148438 14.34375 -19.9375 14.34375 -17 L 14.34375 0 L 4.53125 0 L 4.53125 -33.859375 L 13.90625 -33.859375 L 13.90625 -29.953125 C 15.164062 -31.378906 16.707031 -32.46875 18.53125 -33.21875 C 20.351562 -33.976562 22.359375 -34.359375 24.546875 -34.359375 C 26.941406 -34.359375 29.101562 -33.882812 31.03125 -32.9375 C 32.957031 -32 34.507812 -30.628906 35.6875 -28.828125 C 37.070312 -30.585938 38.820312 -31.945312 40.9375 -32.90625 C 43.0625 -33.875 45.378906 -34.359375 47.890625 -34.359375 Z M 47.890625 -34.359375 "/></g></g></g><g fill="#ffffff" fill-opacity="1"><g transform="translate(692.019542, 1333.228635)"><g/></g></g><g fill="#ffffff" fill-opacity="1"><g transform="translate(709.828943, 1333.228635)"><g><path d="M 20.890625 0.5 C 17.285156 0.5 14.046875 -0.242188 11.171875 -1.734375 C 8.296875 -3.222656 6.050781 -5.285156 4.4375 -7.921875 C 2.820312 -10.566406 2.015625 -13.570312 2.015625 -16.9375 C 2.015625 -20.289062 2.820312 -23.285156 4.4375 -25.921875 C 6.050781 -28.566406 8.296875 -30.632812 11.171875 -32.125 C 14.046875 -33.613281 17.285156 -34.359375 20.890625 -34.359375 C 24.460938 -34.359375 27.578125 -33.613281 30.234375 -32.125 C 32.898438 -30.632812 34.84375 -28.503906 36.0625 -25.734375 L 28.453125 -21.65625 C 26.679688 -24.757812 24.140625 -26.3125 20.828125 -26.3125 C 18.273438 -26.3125 16.15625 -25.46875 14.46875 -23.78125 C 12.789062 -22.101562 11.953125 -19.820312 11.953125 -16.9375 C 11.953125 -14.039062 12.789062 -11.75 14.46875 -10.0625 C 16.15625 -8.382812 18.273438 -7.546875 20.828125 -7.546875 C 24.191406 -7.546875 26.734375 -9.097656 28.453125 -12.203125 L 36.0625 -8.0625 C 34.84375 -5.375 32.898438 -3.273438 30.234375 -1.765625 C 27.578125 -0.253906 24.460938 0.5 20.890625 0.5 Z M 20.890625 0.5 "/></g></g></g><g fill="#ffffff" fill-opacity="1"><g transform="translate(747.020932, 1333.228635)"><g><path d="M 38.640625 -33.859375 L 38.640625 0 L 29.328125 0 L 29.328125 -4.03125 C 28.023438 -2.5625 26.472656 -1.4375 24.671875 -0.65625 C 22.867188 0.113281 20.914062 0.5 18.8125 0.5 C 14.363281 0.5 10.835938 -0.773438 8.234375 -3.328125 C 5.640625 -5.890625 4.34375 -9.691406 4.34375 -14.734375 L 4.34375 -33.859375 L 14.15625 -33.859375 L 14.15625 -16.171875 C 14.15625 -10.722656 16.441406 -8 21.015625 -8 C 23.367188 -8 25.257812 -8.765625 26.6875 -10.296875 C 28.113281 -11.828125 28.828125 -14.101562 28.828125 -17.125 L 28.828125 -33.859375 Z M 38.640625 -33.859375 "/></g></g></g><g fill="#ffffff" fill-opacity="1"><g transform="translate(790.254327, 1333.228635)"><g><path d="M 4.53125 -33.859375 L 14.34375 -33.859375 L 14.34375 0 L 4.53125 0 Z M 9.453125 -38.578125 C 7.640625 -38.578125 6.164062 -39.101562 5.03125 -40.15625 C 3.90625 -41.207031 3.34375 -42.507812 3.34375 -44.0625 C 3.34375 -45.613281 3.90625 -46.910156 5.03125 -47.953125 C 6.164062 -49.003906 7.640625 -49.53125 9.453125 -49.53125 C 11.253906 -49.53125 12.71875 -49.023438 13.84375 -48.015625 C 14.976562 -47.015625 15.546875 -45.757812 15.546875 -44.25 C 15.546875 -42.613281 14.976562 -41.257812 13.84375 -40.1875 C 12.71875 -39.113281 11.253906 -38.578125 9.453125 -38.578125 Z M 9.453125 -38.578125 "/></g></g></g><g fill="#ffffff" fill-opacity="1"><g transform="translate(809.19643, 1333.228635)"><g><path d="M 39.015625 -46.703125 L 39.015625 0 L 29.640625 0 L 29.640625 -3.90625 C 27.210938 -0.96875 23.6875 0.5 19.0625 0.5 C 15.875 0.5 12.988281 -0.210938 10.40625 -1.640625 C 7.832031 -3.066406 5.8125 -5.097656 4.34375 -7.734375 C 2.875 -10.378906 2.140625 -13.445312 2.140625 -16.9375 C 2.140625 -20.414062 2.875 -23.472656 4.34375 -26.109375 C 5.8125 -28.753906 7.832031 -30.789062 10.40625 -32.21875 C 12.988281 -33.644531 15.875 -34.359375 19.0625 -34.359375 C 23.382812 -34.359375 26.765625 -32.992188 29.203125 -30.265625 L 29.203125 -46.703125 Z M 20.765625 -7.546875 C 23.242188 -7.546875 25.300781 -8.394531 26.9375 -10.09375 C 28.570312 -11.800781 29.390625 -14.082031 29.390625 -16.9375 C 29.390625 -19.78125 28.570312 -22.050781 26.9375 -23.75 C 25.300781 -25.457031 23.242188 -26.3125 20.765625 -26.3125 C 18.253906 -26.3125 16.175781 -25.457031 14.53125 -23.75 C 12.894531 -22.050781 12.078125 -19.78125 12.078125 -16.9375 C 12.078125 -14.082031 12.894531 -11.800781 14.53125 -10.09375 C 16.175781 -8.394531 18.253906 -7.546875 20.765625 -7.546875 Z M 20.765625 -7.546875 "/></g></g></g><g fill="#ffffff" fill-opacity="1"><g transform="translate(852.744442, 1333.228635)"><g><path d="M 18.1875 -34.359375 C 23.4375 -34.359375 27.460938 -33.109375 30.265625 -30.609375 C 33.078125 -28.117188 34.484375 -24.359375 34.484375 -19.328125 L 34.484375 0 L 25.296875 0 L 25.296875 -4.21875 C 23.453125 -1.070312 20.015625 0.5 14.984375 0.5 C 12.378906 0.5 10.117188 0.0625 8.203125 -0.8125 C 6.296875 -1.695312 4.835938 -2.914062 3.828125 -4.46875 C 2.828125 -6.019531 2.328125 -7.78125 2.328125 -9.75 C 2.328125 -12.894531 3.507812 -15.367188 5.875 -17.171875 C 8.25 -18.984375 11.914062 -19.890625 16.875 -19.890625 L 24.671875 -19.890625 C 24.671875 -22.023438 24.019531 -23.671875 22.71875 -24.828125 C 21.414062 -25.984375 19.46875 -26.5625 16.875 -26.5625 C 15.0625 -26.5625 13.285156 -26.273438 11.546875 -25.703125 C 9.804688 -25.140625 8.328125 -24.375 7.109375 -23.40625 L 3.59375 -30.265625 C 5.4375 -31.566406 7.644531 -32.570312 10.21875 -33.28125 C 12.800781 -34 15.457031 -34.359375 18.1875 -34.359375 Z M 17.4375 -6.109375 C 19.113281 -6.109375 20.601562 -6.492188 21.90625 -7.265625 C 23.207031 -8.046875 24.128906 -9.191406 24.671875 -10.703125 L 24.671875 -14.15625 L 17.9375 -14.15625 C 13.90625 -14.15625 11.890625 -12.835938 11.890625 -10.203125 C 11.890625 -8.941406 12.382812 -7.941406 13.375 -7.203125 C 14.363281 -6.472656 15.71875 -6.109375 17.4375 -6.109375 Z M 17.4375 -6.109375 "/></g></g></g><g fill="#ffffff" fill-opacity="1"><g transform="translate(891.572698, 1333.228635)"><g><path d="M 8.25 0.5 C 6.53125 0.5 5.082031 -0.0820312 3.90625 -1.25 C 2.726562 -2.425781 2.140625 -3.898438 2.140625 -5.671875 C 2.140625 -7.472656 2.726562 -8.925781 3.90625 -10.03125 C 5.082031 -11.144531 6.53125 -11.703125 8.25 -11.703125 C 9.96875 -11.703125 11.410156 -11.144531 12.578125 -10.03125 C 13.753906 -8.925781 14.34375 -7.472656 14.34375 -5.671875 C 14.34375 -3.898438 13.753906 -2.425781 12.578125 -1.25 C 11.410156 -0.0820312 9.96875 0.5 8.25 0.5 Z M 8.25 0.5 "/></g></g></g><g fill="#ffffff" fill-opacity="1"><g transform="translate(908.060549, 1333.228635)"><g/></g></g><g fill="#00bfff" fill-opacity="1"><g transform="translate(925.877642, 1333.228635)"><g><path d="M 19.703125 0.75 C 16.210938 0.75 12.84375 0.28125 9.59375 -0.65625 C 6.34375 -1.601562 3.734375 -2.832031 1.765625 -4.34375 L 5.21875 -12.015625 C 7.113281 -10.628906 9.359375 -9.515625 11.953125 -8.671875 C 14.554688 -7.835938 17.160156 -7.421875 19.765625 -7.421875 C 22.660156 -7.421875 24.800781 -7.847656 26.1875 -8.703125 C 27.570312 -9.566406 28.265625 -10.710938 28.265625 -12.140625 C 28.265625 -13.191406 27.851562 -14.0625 27.03125 -14.75 C 26.207031 -15.445312 25.15625 -16.003906 23.875 -16.421875 C 22.601562 -16.847656 20.875 -17.3125 18.6875 -17.8125 C 15.332031 -18.601562 12.582031 -19.398438 10.4375 -20.203125 C 8.300781 -21.003906 6.46875 -22.285156 4.9375 -24.046875 C 3.40625 -25.804688 2.640625 -28.15625 2.640625 -31.09375 C 2.640625 -33.65625 3.332031 -35.972656 4.71875 -38.046875 C 6.101562 -40.117188 8.191406 -41.765625 10.984375 -42.984375 C 13.773438 -44.203125 17.179688 -44.8125 21.203125 -44.8125 C 24.015625 -44.8125 26.765625 -44.472656 29.453125 -43.796875 C 32.140625 -43.128906 34.488281 -42.164062 36.5 -40.90625 L 33.359375 -33.171875 C 29.285156 -35.472656 25.210938 -36.625 21.140625 -36.625 C 18.296875 -36.625 16.191406 -36.160156 14.828125 -35.234375 C 13.460938 -34.316406 12.78125 -33.101562 12.78125 -31.59375 C 12.78125 -30.082031 13.566406 -28.957031 15.140625 -28.21875 C 16.710938 -27.488281 19.113281 -26.769531 22.34375 -26.0625 C 25.695312 -25.257812 28.441406 -24.457031 30.578125 -23.65625 C 32.722656 -22.863281 34.5625 -21.609375 36.09375 -19.890625 C 37.625 -18.171875 38.390625 -15.84375 38.390625 -12.90625 C 38.390625 -10.382812 37.6875 -8.082031 36.28125 -6 C 34.875 -3.925781 32.765625 -2.28125 29.953125 -1.0625 C 27.140625 0.144531 23.722656 0.75 19.703125 0.75 Z M 19.703125 0.75 "/></g></g></g><g fill="#00bfff" fill-opacity="1"><g transform="translate(966.0274, 1333.228635)"><g><path d="M 37.703125 -16.796875 C 37.703125 -16.671875 37.640625 -15.789062 37.515625 -14.15625 L 11.890625 -14.15625 C 12.359375 -12.0625 13.453125 -10.40625 15.171875 -9.1875 C 16.890625 -7.96875 19.03125 -7.359375 21.59375 -7.359375 C 23.351562 -7.359375 24.914062 -7.617188 26.28125 -8.140625 C 27.644531 -8.671875 28.910156 -9.503906 30.078125 -10.640625 L 35.3125 -4.96875 C 32.125 -1.320312 27.460938 0.5 21.328125 0.5 C 17.515625 0.5 14.140625 -0.242188 11.203125 -1.734375 C 8.265625 -3.222656 6 -5.285156 4.40625 -7.921875 C 2.8125 -10.566406 2.015625 -13.570312 2.015625 -16.9375 C 2.015625 -20.25 2.800781 -23.234375 4.375 -25.890625 C 5.945312 -28.554688 8.109375 -30.632812 10.859375 -32.125 C 13.609375 -33.613281 16.679688 -34.359375 20.078125 -34.359375 C 23.390625 -34.359375 26.390625 -33.644531 29.078125 -32.21875 C 31.765625 -30.789062 33.875 -28.742188 35.40625 -26.078125 C 36.9375 -23.421875 37.703125 -20.328125 37.703125 -16.796875 Z M 20.140625 -26.9375 C 17.910156 -26.9375 16.039062 -26.304688 14.53125 -25.046875 C 13.019531 -23.785156 12.097656 -22.066406 11.765625 -19.890625 L 28.453125 -19.890625 C 28.109375 -22.023438 27.179688 -23.734375 25.671875 -25.015625 C 24.160156 -26.296875 22.316406 -26.9375 20.140625 -26.9375 Z M 20.140625 -26.9375 "/></g></g></g><g fill="#00bfff" fill-opacity="1"><g transform="translate(1005.73665, 1333.228635)"><g><path d="M 39.46875 -33.859375 L 39.46875 -5.671875 C 39.46875 0.546875 37.847656 5.164062 34.609375 8.1875 C 31.378906 11.207031 26.660156 12.71875 20.453125 12.71875 C 17.179688 12.71875 14.078125 12.316406 11.140625 11.515625 C 8.203125 10.722656 5.769531 9.570312 3.84375 8.0625 L 7.734375 1 C 9.160156 2.175781 10.960938 3.109375 13.140625 3.796875 C 15.328125 4.492188 17.515625 4.84375 19.703125 4.84375 C 23.097656 4.84375 25.601562 4.078125 27.21875 2.546875 C 28.832031 1.015625 29.640625 -1.300781 29.640625 -4.40625 L 29.640625 -5.859375 C 27.078125 -3.046875 23.507812 -1.640625 18.9375 -1.640625 C 15.832031 -1.640625 12.988281 -2.320312 10.40625 -3.6875 C 7.832031 -5.050781 5.789062 -6.96875 4.28125 -9.4375 C 2.769531 -11.914062 2.015625 -14.769531 2.015625 -18 C 2.015625 -21.226562 2.769531 -24.078125 4.28125 -26.546875 C 5.789062 -29.023438 7.832031 -30.945312 10.40625 -32.3125 C 12.988281 -33.675781 15.832031 -34.359375 18.9375 -34.359375 C 23.851562 -34.359375 27.585938 -32.742188 30.140625 -29.515625 L 30.140625 -33.859375 Z M 20.890625 -9.6875 C 23.492188 -9.6875 25.625 -10.453125 27.28125 -11.984375 C 28.9375 -13.515625 29.765625 -15.519531 29.765625 -18 C 29.765625 -20.476562 28.9375 -22.484375 27.28125 -24.015625 C 25.625 -25.546875 23.492188 -26.3125 20.890625 -26.3125 C 18.296875 -26.3125 16.15625 -25.546875 14.46875 -24.015625 C 12.789062 -22.484375 11.953125 -20.476562 11.953125 -18 C 11.953125 -15.519531 12.789062 -13.515625 14.46875 -11.984375 C 16.15625 -10.453125 18.296875 -9.6875 20.890625 -9.6875 Z M 20.890625 -9.6875 "/></g></g></g><g fill="#00bfff" fill-opacity="1"><g transform="translate(1049.788116, 1333.228635)"><g><path d="M 38.640625 -33.859375 L 38.640625 0 L 29.328125 0 L 29.328125 -4.03125 C 28.023438 -2.5625 26.472656 -1.4375 24.671875 -0.65625 C 22.867188 0.113281 20.914062 0.5 18.8125 0.5 C 14.363281 0.5 10.835938 -0.773438 8.234375 -3.328125 C 5.640625 -5.890625 4.34375 -9.691406 4.34375 -14.734375 L 4.34375 -33.859375 L 14.15625 -33.859375 L 14.15625 -16.171875 C 14.15625 -10.722656 16.441406 -8 21.015625 -8 C 23.367188 -8 25.257812 -8.765625 26.6875 -10.296875 C 28.113281 -11.828125 28.828125 -14.101562 28.828125 -17.125 L 28.828125 -33.859375 Z M 38.640625 -33.859375 "/></g></g></g><g fill="#00bfff" fill-opacity="1"><g transform="translate(1093.021485, 1333.228635)"><g><path d="M 13.90625 -29.390625 C 15.082031 -31.023438 16.664062 -32.257812 18.65625 -33.09375 C 20.65625 -33.9375 22.953125 -34.359375 25.546875 -34.359375 L 25.546875 -25.296875 C 24.460938 -25.378906 23.726562 -25.421875 23.34375 -25.421875 C 20.539062 -25.421875 18.335938 -24.632812 16.734375 -23.0625 C 15.140625 -21.488281 14.34375 -19.128906 14.34375 -15.984375 L 14.34375 0 L 4.53125 0 L 4.53125 -33.859375 L 13.90625 -33.859375 Z M 13.90625 -29.390625 "/></g></g></g><g fill="#00bfff" fill-opacity="1"><g transform="translate(1119.704084, 1333.228635)"><g><path d="M 18.1875 -34.359375 C 23.4375 -34.359375 27.460938 -33.109375 30.265625 -30.609375 C 33.078125 -28.117188 34.484375 -24.359375 34.484375 -19.328125 L 34.484375 0 L 25.296875 0 L 25.296875 -4.21875 C 23.453125 -1.070312 20.015625 0.5 14.984375 0.5 C 12.378906 0.5 10.117188 0.0625 8.203125 -0.8125 C 6.296875 -1.695312 4.835938 -2.914062 3.828125 -4.46875 C 2.828125 -6.019531 2.328125 -7.78125 2.328125 -9.75 C 2.328125 -12.894531 3.507812 -15.367188 5.875 -17.171875 C 8.25 -18.984375 11.914062 -19.890625 16.875 -19.890625 L 24.671875 -19.890625 C 24.671875 -22.023438 24.019531 -23.671875 22.71875 -24.828125 C 21.414062 -25.984375 19.46875 -26.5625 16.875 -26.5625 C 15.0625 -26.5625 13.285156 -26.273438 11.546875 -25.703125 C 9.804688 -25.140625 8.328125 -24.375 7.109375 -23.40625 L 3.59375 -30.265625 C 5.4375 -31.566406 7.644531 -32.570312 10.21875 -33.28125 C 12.800781 -34 15.457031 -34.359375 18.1875 -34.359375 Z M 17.4375 -6.109375 C 19.113281 -6.109375 20.601562 -6.492188 21.90625 -7.265625 C 23.207031 -8.046875 24.128906 -9.191406 24.671875 -10.703125 L 24.671875 -14.15625 L 17.9375 -14.15625 C 13.90625 -14.15625 11.890625 -12.835938 11.890625 -10.203125 C 11.890625 -8.941406 12.382812 -7.941406 13.375 -7.203125 C 14.363281 -6.472656 15.71875 -6.109375 17.4375 -6.109375 Z M 17.4375 -6.109375 "/></g></g></g><g fill="#00bfff" fill-opacity="1"><g transform="translate(1158.532315, 1333.228635)"><g><path d="M 25.109375 -34.359375 C 29.304688 -34.359375 32.691406 -33.097656 35.265625 -30.578125 C 37.847656 -28.066406 39.140625 -24.335938 39.140625 -19.390625 L 39.140625 0 L 29.328125 0 L 29.328125 -17.875 C 29.328125 -20.5625 28.738281 -22.566406 27.5625 -23.890625 C 26.382812 -25.210938 24.6875 -25.875 22.46875 -25.875 C 19.988281 -25.875 18.015625 -25.101562 16.546875 -23.5625 C 15.078125 -22.03125 14.34375 -19.753906 14.34375 -16.734375 L 14.34375 0 L 4.53125 0 L 4.53125 -33.859375 L 13.90625 -33.859375 L 13.90625 -29.890625 C 15.207031 -31.316406 16.820312 -32.414062 18.75 -33.1875 C 20.6875 -33.96875 22.804688 -34.359375 25.109375 -34.359375 Z M 25.109375 -34.359375 "/></g></g></g><g fill="#00bfff" fill-opacity="1"><g transform="translate(1202.394994, 1333.228635)"><g><path d="M 20.890625 0.5 C 17.285156 0.5 14.046875 -0.242188 11.171875 -1.734375 C 8.296875 -3.222656 6.050781 -5.285156 4.4375 -7.921875 C 2.820312 -10.566406 2.015625 -13.570312 2.015625 -16.9375 C 2.015625 -20.289062 2.820312 -23.285156 4.4375 -25.921875 C 6.050781 -28.566406 8.296875 -30.632812 11.171875 -32.125 C 14.046875 -33.613281 17.285156 -34.359375 20.890625 -34.359375 C 24.460938 -34.359375 27.578125 -33.613281 30.234375 -32.125 C 32.898438 -30.632812 34.84375 -28.503906 36.0625 -25.734375 L 28.453125 -21.65625 C 26.679688 -24.757812 24.140625 -26.3125 20.828125 -26.3125 C 18.273438 -26.3125 16.15625 -25.46875 14.46875 -23.78125 C 12.789062 -22.101562 11.953125 -19.820312 11.953125 -16.9375 C 11.953125 -14.039062 12.789062 -11.75 14.46875 -10.0625 C 16.15625 -8.382812 18.273438 -7.546875 20.828125 -7.546875 C 24.191406 -7.546875 26.734375 -9.097656 28.453125 -12.203125 L 36.0625 -8.0625 C 34.84375 -5.375 32.898438 -3.273438 30.234375 -1.765625 C 27.578125 -0.253906 24.460938 0.5 20.890625 0.5 Z M 17.3125 14.59375 C 16.21875 14.59375 15.144531 14.476562 14.09375 14.25 C 13.050781 14.019531 12.171875 13.695312 11.453125 13.28125 L 12.96875 9.0625 C 14.3125 9.6875 15.675781 10 17.0625 10 C 19.238281 10 20.328125 9.332031 20.328125 8 C 20.328125 6.78125 19.300781 6.171875 17.25 6.171875 L 15.109375 6.171875 L 16.734375 -0.5 L 21.96875 -0.5 L 21.078125 3.140625 C 22.929688 3.359375 24.304688 3.9375 25.203125 4.875 C 26.109375 5.820312 26.5625 6.988281 26.5625 8.375 C 26.5625 10.300781 25.722656 11.816406 24.046875 12.921875 C 22.367188 14.035156 20.125 14.59375 17.3125 14.59375 Z M 17.3125 14.59375 "/></g></g></g><g fill="#00bfff" fill-opacity="1"><g transform="translate(1239.587007, 1333.228635)"><g><path d="M 18.1875 -34.359375 C 23.4375 -34.359375 27.460938 -33.109375 30.265625 -30.609375 C 33.078125 -28.117188 34.484375 -24.359375 34.484375 -19.328125 L 34.484375 0 L 25.296875 0 L 25.296875 -4.21875 C 23.453125 -1.070312 20.015625 0.5 14.984375 0.5 C 12.378906 0.5 10.117188 0.0625 8.203125 -0.8125 C 6.296875 -1.695312 4.835938 -2.914062 3.828125 -4.46875 C 2.828125 -6.019531 2.328125 -7.78125 2.328125 -9.75 C 2.328125 -12.894531 3.507812 -15.367188 5.875 -17.171875 C 8.25 -18.984375 11.914062 -19.890625 16.875 -19.890625 L 24.671875 -19.890625 C 24.671875 -22.023438 24.019531 -23.671875 22.71875 -24.828125 C 21.414062 -25.984375 19.46875 -26.5625 16.875 -26.5625 C 15.0625 -26.5625 13.285156 -26.273438 11.546875 -25.703125 C 9.804688 -25.140625 8.328125 -24.375 7.109375 -23.40625 L 3.59375 -30.265625 C 5.4375 -31.566406 7.644531 -32.570312 10.21875 -33.28125 C 12.800781 -34 15.457031 -34.359375 18.1875 -34.359375 Z M 17.4375 -6.109375 C 19.113281 -6.109375 20.601562 -6.492188 21.90625 -7.265625 C 23.207031 -8.046875 24.128906 -9.191406 24.671875 -10.703125 L 24.671875 -14.15625 L 17.9375 -14.15625 C 13.90625 -14.15625 11.890625 -12.835938 11.890625 -10.203125 C 11.890625 -8.941406 12.382812 -7.941406 13.375 -7.203125 C 14.363281 -6.472656 15.71875 -6.109375 17.4375 -6.109375 Z M 17.4375 -6.109375 "/></g></g></g><g fill="#ffffff" fill-opacity="1"><g transform="translate(1278.423763, 1333.228635)"><g/></g></g><g fill="#ffffff" fill-opacity="1"><g transform="translate(1296.23314, 1333.228635)"><g><path d="M 24.546875 -34.359375 C 27.691406 -34.359375 30.550781 -33.632812 33.125 -32.1875 C 35.707031 -30.738281 37.734375 -28.703125 39.203125 -26.078125 C 40.671875 -23.460938 41.40625 -20.414062 41.40625 -16.9375 C 41.40625 -13.445312 40.671875 -10.390625 39.203125 -7.765625 C 37.734375 -5.148438 35.707031 -3.117188 33.125 -1.671875 C 30.550781 -0.222656 27.691406 0.5 24.546875 0.5 C 20.222656 0.5 16.820312 -0.863281 14.34375 -3.59375 L 14.34375 12.203125 L 4.53125 12.203125 L 4.53125 -33.859375 L 13.90625 -33.859375 L 13.90625 -29.953125 C 16.34375 -32.890625 19.890625 -34.359375 24.546875 -34.359375 Z M 22.84375 -7.546875 C 25.363281 -7.546875 27.429688 -8.394531 29.046875 -10.09375 C 30.660156 -11.800781 31.46875 -14.082031 31.46875 -16.9375 C 31.46875 -19.78125 30.660156 -22.050781 29.046875 -23.75 C 27.429688 -25.457031 25.363281 -26.3125 22.84375 -26.3125 C 20.320312 -26.3125 18.253906 -25.457031 16.640625 -23.75 C 15.023438 -22.050781 14.21875 -19.78125 14.21875 -16.9375 C 14.21875 -14.082031 15.023438 -11.800781 16.640625 -10.09375 C 18.253906 -8.394531 20.320312 -7.546875 22.84375 -7.546875 Z M 22.84375 -7.546875 "/></g></g></g><g fill="#ffffff" fill-opacity="1"><g transform="translate(1339.08891, 1333.228635)"><g><path d="M 18.1875 -34.359375 C 23.4375 -34.359375 27.460938 -33.109375 30.265625 -30.609375 C 33.078125 -28.117188 34.484375 -24.359375 34.484375 -19.328125 L 34.484375 0 L 25.296875 0 L 25.296875 -4.21875 C 23.453125 -1.070312 20.015625 0.5 14.984375 0.5 C 12.378906 0.5 10.117188 0.0625 8.203125 -0.8125 C 6.296875 -1.695312 4.835938 -2.914062 3.828125 -4.46875 C 2.828125 -6.019531 2.328125 -7.78125 2.328125 -9.75 C 2.328125 -12.894531 3.507812 -15.367188 5.875 -17.171875 C 8.25 -18.984375 11.914062 -19.890625 16.875 -19.890625 L 24.671875 -19.890625 C 24.671875 -22.023438 24.019531 -23.671875 22.71875 -24.828125 C 21.414062 -25.984375 19.46875 -26.5625 16.875 -26.5625 C 15.0625 -26.5625 13.285156 -26.273438 11.546875 -25.703125 C 9.804688 -25.140625 8.328125 -24.375 7.109375 -23.40625 L 3.59375 -30.265625 C 5.4375 -31.566406 7.644531 -32.570312 10.21875 -33.28125 C 12.800781 -34 15.457031 -34.359375 18.1875 -34.359375 Z M 17.4375 -6.109375 C 19.113281 -6.109375 20.601562 -6.492188 21.90625 -7.265625 C 23.207031 -8.046875 24.128906 -9.191406 24.671875 -10.703125 L 24.671875 -14.15625 L 17.9375 -14.15625 C 13.90625 -14.15625 11.890625 -12.835938 11.890625 -10.203125 C 11.890625 -8.941406 12.382812 -7.941406 13.375 -7.203125 C 14.363281 -6.472656 15.71875 -6.109375 17.4375 -6.109375 Z M 17.4375 -6.109375 "/></g></g></g><g fill="#ffffff" fill-opacity="1"><g transform="translate(1377.917129, 1333.228635)"><g><path d="M 13.90625 -29.390625 C 15.082031 -31.023438 16.664062 -32.257812 18.65625 -33.09375 C 20.65625 -33.9375 22.953125 -34.359375 25.546875 -34.359375 L 25.546875 -25.296875 C 24.460938 -25.378906 23.726562 -25.421875 23.34375 -25.421875 C 20.539062 -25.421875 18.335938 -24.632812 16.734375 -23.0625 C 15.140625 -21.488281 14.34375 -19.128906 14.34375 -15.984375 L 14.34375 0 L 4.53125 0 L 4.53125 -33.859375 L 13.90625 -33.859375 Z M 13.90625 -29.390625 "/></g></g></g><g fill="#ffffff" fill-opacity="1"><g transform="translate(1404.599728, 1333.228635)"><g><path d="M 18.1875 -34.359375 C 23.4375 -34.359375 27.460938 -33.109375 30.265625 -30.609375 C 33.078125 -28.117188 34.484375 -24.359375 34.484375 -19.328125 L 34.484375 0 L 25.296875 0 L 25.296875 -4.21875 C 23.453125 -1.070312 20.015625 0.5 14.984375 0.5 C 12.378906 0.5 10.117188 0.0625 8.203125 -0.8125 C 6.296875 -1.695312 4.835938 -2.914062 3.828125 -4.46875 C 2.828125 -6.019531 2.328125 -7.78125 2.328125 -9.75 C 2.328125 -12.894531 3.507812 -15.367188 5.875 -17.171875 C 8.25 -18.984375 11.914062 -19.890625 16.875 -19.890625 L 24.671875 -19.890625 C 24.671875 -22.023438 24.019531 -23.671875 22.71875 -24.828125 C 21.414062 -25.984375 19.46875 -26.5625 16.875 -26.5625 C 15.0625 -26.5625 13.285156 -26.273438 11.546875 -25.703125 C 9.804688 -25.140625 8.328125 -24.375 7.109375 -23.40625 L 3.59375 -30.265625 C 5.4375 -31.566406 7.644531 -32.570312 10.21875 -33.28125 C 12.800781 -34 15.457031 -34.359375 18.1875 -34.359375 Z M 17.4375 -6.109375 C 19.113281 -6.109375 20.601562 -6.492188 21.90625 -7.265625 C 23.207031 -8.046875 24.128906 -9.191406 24.671875 -10.703125 L 24.671875 -14.15625 L 17.9375 -14.15625 C 13.90625 -14.15625 11.890625 -12.835938 11.890625 -10.203125 C 11.890625 -8.941406 12.382812 -7.941406 13.375 -7.203125 C 14.363281 -6.472656 15.71875 -6.109375 17.4375 -6.109375 Z M 17.4375 -6.109375 "/></g></g></g><g fill="#ffffff" fill-opacity="1"><g transform="translate(1443.427947, 1333.228635)"><g/></g></g><g fill="#ffffff" fill-opacity="1"><g transform="translate(1461.237324, 1333.228635)"><g><path d="M 38.890625 -33.859375 L 38.890625 12.203125 L 29.078125 12.203125 L 29.078125 -3.59375 C 26.640625 -0.863281 23.257812 0.5 18.9375 0.5 C 15.75 0.5 12.863281 -0.210938 10.28125 -1.640625 C 7.707031 -3.066406 5.6875 -5.097656 4.21875 -7.734375 C 2.75 -10.378906 2.015625 -13.445312 2.015625 -16.9375 C 2.015625 -20.414062 2.75 -23.472656 4.21875 -26.109375 C 5.6875 -28.753906 7.707031 -30.789062 10.28125 -32.21875 C 12.863281 -33.644531 15.75 -34.359375 18.9375 -34.359375 C 23.5625 -34.359375 27.085938 -32.890625 29.515625 -29.953125 L 29.515625 -33.859375 Z M 20.640625 -7.546875 C 23.117188 -7.546875 25.175781 -8.394531 26.8125 -10.09375 C 28.445312 -11.800781 29.265625 -14.082031 29.265625 -16.9375 C 29.265625 -19.78125 28.445312 -22.050781 26.8125 -23.75 C 25.175781 -25.457031 23.117188 -26.3125 20.640625 -26.3125 C 18.128906 -26.3125 16.050781 -25.457031 14.40625 -23.75 C 12.769531 -22.050781 11.953125 -19.78125 11.953125 -16.9375 C 11.953125 -14.082031 12.769531 -11.800781 14.40625 -10.09375 C 16.050781 -8.394531 18.128906 -7.546875 20.640625 -7.546875 Z M 20.640625 -7.546875 "/></g></g></g><g fill="#ffffff" fill-opacity="1"><g transform="translate(1504.659482, 1333.228635)"><g><path d="M 38.640625 -33.859375 L 38.640625 0 L 29.328125 0 L 29.328125 -4.03125 C 28.023438 -2.5625 26.472656 -1.4375 24.671875 -0.65625 C 22.867188 0.113281 20.914062 0.5 18.8125 0.5 C 14.363281 0.5 10.835938 -0.773438 8.234375 -3.328125 C 5.640625 -5.890625 4.34375 -9.691406 4.34375 -14.734375 L 4.34375 -33.859375 L 14.15625 -33.859375 L 14.15625 -16.171875 C 14.15625 -10.722656 16.441406 -8 21.015625 -8 C 23.367188 -8 25.257812 -8.765625 26.6875 -10.296875 C 28.113281 -11.828125 28.828125 -14.101562 28.828125 -17.125 L 28.828125 -33.859375 Z M 38.640625 -33.859375 "/></g></g></g><g fill="#ffffff" fill-opacity="1"><g transform="translate(1547.892851, 1333.228635)"><g><path d="M 37.703125 -16.796875 C 37.703125 -16.671875 37.640625 -15.789062 37.515625 -14.15625 L 11.890625 -14.15625 C 12.359375 -12.0625 13.453125 -10.40625 15.171875 -9.1875 C 16.890625 -7.96875 19.03125 -7.359375 21.59375 -7.359375 C 23.351562 -7.359375 24.914062 -7.617188 26.28125 -8.140625 C 27.644531 -8.671875 28.910156 -9.503906 30.078125 -10.640625 L 35.3125 -4.96875 C 32.125 -1.320312 27.460938 0.5 21.328125 0.5 C 17.515625 0.5 14.140625 -0.242188 11.203125 -1.734375 C 8.265625 -3.222656 6 -5.285156 4.40625 -7.921875 C 2.8125 -10.566406 2.015625 -13.570312 2.015625 -16.9375 C 2.015625 -20.25 2.800781 -23.234375 4.375 -25.890625 C 5.945312 -28.554688 8.109375 -30.632812 10.859375 -32.125 C 13.609375 -33.613281 16.679688 -34.359375 20.078125 -34.359375 C 23.390625 -34.359375 26.390625 -33.644531 29.078125 -32.21875 C 31.765625 -30.789062 33.875 -28.742188 35.40625 -26.078125 C 36.9375 -23.421875 37.703125 -20.328125 37.703125 -16.796875 Z M 20.140625 -26.9375 C 17.910156 -26.9375 16.039062 -26.304688 14.53125 -25.046875 C 13.019531 -23.785156 12.097656 -22.066406 11.765625 -19.890625 L 28.453125 -19.890625 C 28.109375 -22.023438 27.179688 -23.734375 25.671875 -25.015625 C 24.160156 -26.296875 22.316406 -26.9375 20.140625 -26.9375 Z M 20.140625 -26.9375 "/></g></g></g><g fill="#ffffff" fill-opacity="1"><g transform="translate(1587.602101, 1333.228635)"><g><path d="M 47.890625 -34.359375 C 52.128906 -34.359375 55.492188 -33.109375 57.984375 -30.609375 C 60.484375 -28.117188 61.734375 -24.378906 61.734375 -19.390625 L 61.734375 0 L 51.921875 0 L 51.921875 -17.875 C 51.921875 -20.5625 51.363281 -22.566406 50.25 -23.890625 C 49.144531 -25.210938 47.5625 -25.875 45.5 -25.875 C 43.195312 -25.875 41.375 -25.128906 40.03125 -23.640625 C 38.6875 -22.148438 38.015625 -19.9375 38.015625 -17 L 38.015625 0 L 28.203125 0 L 28.203125 -17.875 C 28.203125 -23.207031 26.0625 -25.875 21.78125 -25.875 C 19.507812 -25.875 17.703125 -25.128906 16.359375 -23.640625 C 15.015625 -22.148438 14.34375 -19.9375 14.34375 -17 L 14.34375 0 L 4.53125 0 L 4.53125 -33.859375 L 13.90625 -33.859375 L 13.90625 -29.953125 C 15.164062 -31.378906 16.707031 -32.46875 18.53125 -33.21875 C 20.351562 -33.976562 22.359375 -34.359375 24.546875 -34.359375 C 26.941406 -34.359375 29.101562 -33.882812 31.03125 -32.9375 C 32.957031 -32 34.507812 -30.628906 35.6875 -28.828125 C 37.070312 -30.585938 38.820312 -31.945312 40.9375 -32.90625 C 43.0625 -33.875 45.378906 -34.359375 47.890625 -34.359375 Z M 47.890625 -34.359375 "/></g></g></g><g fill="#ffffff" fill-opacity="1"><g transform="translate(1653.616386, 1333.228635)"><g/></g></g><g fill="#ffffff" fill-opacity="1"><g transform="translate(1671.425738, 1333.228635)"><g><path d="M 20.890625 0.5 C 17.285156 0.5 14.046875 -0.242188 11.171875 -1.734375 C 8.296875 -3.222656 6.050781 -5.285156 4.4375 -7.921875 C 2.820312 -10.566406 2.015625 -13.570312 2.015625 -16.9375 C 2.015625 -20.289062 2.820312 -23.285156 4.4375 -25.921875 C 6.050781 -28.566406 8.296875 -30.632812 11.171875 -32.125 C 14.046875 -33.613281 17.285156 -34.359375 20.890625 -34.359375 C 24.460938 -34.359375 27.578125 -33.613281 30.234375 -32.125 C 32.898438 -30.632812 34.84375 -28.503906 36.0625 -25.734375 L 28.453125 -21.65625 C 26.679688 -24.757812 24.140625 -26.3125 20.828125 -26.3125 C 18.273438 -26.3125 16.15625 -25.46875 14.46875 -23.78125 C 12.789062 -22.101562 11.953125 -19.820312 11.953125 -16.9375 C 11.953125 -14.039062 12.789062 -11.75 14.46875 -10.0625 C 16.15625 -8.382812 18.273438 -7.546875 20.828125 -7.546875 C 24.191406 -7.546875 26.734375 -9.097656 28.453125 -12.203125 L 36.0625 -8.0625 C 34.84375 -5.375 32.898438 -3.273438 30.234375 -1.765625 C 27.578125 -0.253906 24.460938 0.5 20.890625 0.5 Z M 20.890625 0.5 "/></g></g></g><g fill="#ffffff" fill-opacity="1"><g transform="translate(1708.177243, 1333.228635)"><g><path d="M 20.640625 0.5 C 17.078125 0.5 13.878906 -0.242188 11.046875 -1.734375 C 8.210938 -3.222656 6 -5.285156 4.40625 -7.921875 C 2.8125 -10.566406 2.015625 -13.570312 2.015625 -16.9375 C 2.015625 -20.289062 2.8125 -23.285156 4.40625 -25.921875 C 6 -28.566406 8.210938 -30.632812 11.046875 -32.125 C 13.878906 -33.613281 17.078125 -34.359375 20.640625 -34.359375 C 24.210938 -34.359375 27.398438 -33.613281 30.203125 -32.125 C 33.015625 -30.632812 35.21875 -28.566406 36.8125 -25.921875 C 38.40625 -23.285156 39.203125 -20.289062 39.203125 -16.9375 C 39.203125 -13.570312 38.40625 -10.566406 36.8125 -7.921875 C 35.21875 -5.285156 33.015625 -3.222656 30.203125 -1.734375 C 27.398438 -0.242188 24.210938 0.5 20.640625 0.5 Z M 20.640625 -7.546875 C 23.160156 -7.546875 25.226562 -8.394531 26.84375 -10.09375 C 28.457031 -11.800781 29.265625 -14.082031 29.265625 -16.9375 C 29.265625 -19.78125 28.457031 -22.050781 26.84375 -23.75 C 25.226562 -25.457031 23.160156 -26.3125 20.640625 -26.3125 C 18.128906 -26.3125 16.050781 -25.457031 14.40625 -23.75 C 12.769531 -22.050781 11.953125 -19.78125 11.953125 -16.9375 C 11.953125 -14.082031 12.769531 -11.800781 14.40625 -10.09375 C 16.050781 -8.394531 18.128906 -7.546875 20.640625 -7.546875 Z M 20.640625 -7.546875 "/></g></g></g><g fill="#ffffff" fill-opacity="1"><g transform="translate(1749.396819, 1333.228635)"><g><path d="M 25.109375 -34.359375 C 29.304688 -34.359375 32.691406 -33.097656 35.265625 -30.578125 C 37.847656 -28.066406 39.140625 -24.335938 39.140625 -19.390625 L 39.140625 0 L 29.328125 0 L 29.328125 -17.875 C 29.328125 -20.5625 28.738281 -22.566406 27.5625 -23.890625 C 26.382812 -25.210938 24.6875 -25.875 22.46875 -25.875 C 19.988281 -25.875 18.015625 -25.101562 16.546875 -23.5625 C 15.078125 -22.03125 14.34375 -19.753906 14.34375 -16.734375 L 14.34375 0 L 4.53125 0 L 4.53125 -33.859375 L 13.90625 -33.859375 L 13.90625 -29.890625 C 15.207031 -31.316406 16.820312 -32.414062 18.75 -33.1875 C 20.6875 -33.96875 22.804688 -34.359375 25.109375 -34.359375 Z M 25.109375 -34.359375 "/></g></g></g><g fill="#ffffff" fill-opacity="1"><g transform="translate(1792.881947, 1333.228635)"><g><path d="M 15.296875 -33.109375 L 23.984375 -33.109375 L 23.984375 -25.546875 L 15.546875 -25.546875 L 15.546875 0 L 5.734375 0 L 5.734375 -25.546875 L 0.5 -25.546875 L 0.5 -33.109375 L 5.734375 -33.109375 L 5.734375 -34.609375 C 5.734375 -38.472656 6.875 -41.535156 9.15625 -43.796875 C 11.445312 -46.066406 14.664062 -47.203125 18.8125 -47.203125 C 20.28125 -47.203125 21.675781 -47.046875 23 -46.734375 C 24.320312 -46.421875 25.425781 -45.96875 26.3125 -45.375 L 23.734375 -38.265625 C 22.597656 -39.066406 21.273438 -39.46875 19.765625 -39.46875 C 16.785156 -39.46875 15.296875 -37.828125 15.296875 -34.546875 Z M 15.296875 -33.109375 "/></g></g></g><g fill="#ffffff" fill-opacity="1"><g transform="translate(1822.270693, 1333.228635)"><g><path d="M 4.53125 -33.859375 L 14.34375 -33.859375 L 14.34375 0 L 4.53125 0 Z M 9.453125 -38.578125 C 7.640625 -38.578125 6.164062 -39.101562 5.03125 -40.15625 C 3.90625 -41.207031 3.34375 -42.507812 3.34375 -44.0625 C 3.34375 -45.613281 3.90625 -46.910156 5.03125 -47.953125 C 6.164062 -49.003906 7.640625 -49.53125 9.453125 -49.53125 C 11.253906 -49.53125 12.71875 -49.023438 13.84375 -48.015625 C 14.976562 -47.015625 15.546875 -45.757812 15.546875 -44.25 C 15.546875 -42.613281 14.976562 -41.257812 13.84375 -40.1875 C 12.71875 -39.113281 11.253906 -38.578125 9.453125 -38.578125 Z M 9.453125 -38.578125 "/></g></g></g><g fill="#ffffff" fill-opacity="1"><g transform="translate(1841.212797, 1333.228635)"><g><path d="M 18.1875 -34.359375 C 23.4375 -34.359375 27.460938 -33.109375 30.265625 -30.609375 C 33.078125 -28.117188 34.484375 -24.359375 34.484375 -19.328125 L 34.484375 0 L 25.296875 0 L 25.296875 -4.21875 C 23.453125 -1.070312 20.015625 0.5 14.984375 0.5 C 12.378906 0.5 10.117188 0.0625 8.203125 -0.8125 C 6.296875 -1.695312 4.835938 -2.914062 3.828125 -4.46875 C 2.828125 -6.019531 2.328125 -7.78125 2.328125 -9.75 C 2.328125 -12.894531 3.507812 -15.367188 5.875 -17.171875 C 8.25 -18.984375 11.914062 -19.890625 16.875 -19.890625 L 24.671875 -19.890625 C 24.671875 -22.023438 24.019531 -23.671875 22.71875 -24.828125 C 21.414062 -25.984375 19.46875 -26.5625 16.875 -26.5625 C 15.0625 -26.5625 13.285156 -26.273438 11.546875 -25.703125 C 9.804688 -25.140625 8.328125 -24.375 7.109375 -23.40625 L 3.59375 -30.265625 C 5.4375 -31.566406 7.644531 -32.570312 10.21875 -33.28125 C 12.800781 -34 15.457031 -34.359375 18.1875 -34.359375 Z M 17.4375 -6.109375 C 19.113281 -6.109375 20.601562 -6.492188 21.90625 -7.265625 C 23.207031 -8.046875 24.128906 -9.191406 24.671875 -10.703125 L 24.671875 -14.15625 L 17.9375 -14.15625 C 13.90625 -14.15625 11.890625 -12.835938 11.890625 -10.203125 C 11.890625 -8.941406 12.382812 -7.941406 13.375 -7.203125 C 14.363281 -6.472656 15.71875 -6.109375 17.4375 -6.109375 Z M 17.4375 -6.109375 "/></g></g></g><g fill="#ffffff" fill-opacity="1"><g transform="translate(1880.041004, 1333.228635)"><g><path d="M 8.25 0.5 C 6.53125 0.5 5.082031 -0.0820312 3.90625 -1.25 C 2.726562 -2.425781 2.140625 -3.898438 2.140625 -5.671875 C 2.140625 -7.472656 2.726562 -8.925781 3.90625 -10.03125 C 5.082031 -11.144531 6.53125 -11.703125 8.25 -11.703125 C 9.96875 -11.703125 11.410156 -11.144531 12.578125 -10.03125 C 13.753906 -8.925781 14.34375 -7.472656 14.34375 -5.671875 C 14.34375 -3.898438 13.753906 -2.425781 12.578125 -1.25 C 11.410156 -0.0820312 9.96875 0.5 8.25 0.5 Z M 8.25 0.5 "/></g></g></g></g></g></svg>